<?xml version="1.0"?>
<svg xmlns="http://www.w3.org/2000/svg" viewBox="0 0 64 64" width="512" height="512"><g id="tool-service-help-support-hand"><path d="M10,52a3,3,0,1,0,3,3A3,3,0,0,0,10,52Zm0,4a1,1,0,1,1,1-1A1,1,0,0,1,10,56Z"/><path d="M61.371,27.071l-4.6-1.841-1.841-4.6a1,1,0,0,0-1.858,0l-1.841,4.6-4.6,1.841a1,1,0,0,0,0,1.858l4.642,1.857L53.1,34.512a1,1,0,0,0,1.794,0l1.832-3.726,4.642-1.857a1,1,0,0,0,0-1.858Zm-5.742,2a1,1,0,0,0-.526.488L54,31.8l-1.1-2.244a1,1,0,0,0-.526-.488L49.692,28l2.679-1.071a1,1,0,0,0,.558-.557L54,23.692l1.071,2.68a1,1,0,0,0,.558.557L58.308,28Z"/><path d="M14.629,23.929l4.642,1.857L21.1,29.512a1,1,0,0,0,1.794,0l1.832-3.726,4.642-1.857a1,1,0,0,0,0-1.858l-4.6-1.841-1.841-4.6a1,1,0,0,0-1.858,0l-1.841,4.6-4.6,1.841a1,1,0,0,0,0,1.858Zm5.742-2a1,1,0,0,0,.558-.557L22,18.692l1.071,2.68a1,1,0,0,0,.558.557L26.308,23l-2.679,1.071a1,1,0,0,0-.526.488L22,26.8l-1.1-2.244a1,1,0,0,0-.526-.488L17.692,23Z"/><path d="M59.37,9.07l-4.6-1.84-1.84-4.6a1,1,0,0,0-1.86,0l-1.84,4.6-1.12.45A10.971,10.971,0,0,0,42.4,1.92a1.034,1.034,0,0,0-.95.08,1.013,1.013,0,0,0-.45.84V12.5l-3,2.25L35,12.5V2.84A1.013,1.013,0,0,0,34.55,2a1.031,1.031,0,0,0-.95-.08,11,11,0,0,0-2.64,18.53A2.92,2.92,0,0,1,32,22.71V27H29.66a4.994,4.994,0,0,0-3.54,1.46l-4.66,4.66a2.956,2.956,0,0,1-2.12.88H18V32a1,1,0,0,0-1-1H3a1,1,0,0,0-1,1V61a1,1,0,0,0,1,1H17a1,1,0,0,0,1-1V59h1.67a3.018,3.018,0,0,1,1.8.6L23.33,61a5.008,5.008,0,0,0,3,1H46a4,4,0,0,0,3.32-6.23,3.9,3.9,0,0,0,1.51-.93A3.985,3.985,0,0,0,52,52a3.93,3.93,0,0,0-.96-2.56,4.118,4.118,0,0,0,.79-.6,3.992,3.992,0,0,0-.79-6.26A3.986,3.986,0,0,0,48,36H44V22.71a2.92,2.92,0,0,1,1.04-2.26,10.913,10.913,0,0,0,3.92-7.79l.31.13,1.83,3.72a1,1,0,0,0,1.8,0l1.83-3.72,4.64-1.86a1,1,0,0,0,0-1.86ZM16,60H4V33H16ZM48,38a2,2,0,0,1,.12,4H40a1,1,0,0,0,0,2h9a2.005,2.005,0,0,1,0,4.01h-.01L40,48a1,1,0,0,0,0,2l8.1.01a2,2,0,0,1-.1,4h-.01L40,54a1,1,0,0,0,0,2l6.09.01A2,2,0,0,1,46,60H26.33a3.018,3.018,0,0,1-1.8-.6L22.67,58a5.008,5.008,0,0,0-3-1H18V36h1.34a4.994,4.994,0,0,0,3.54-1.46l4.66-4.66A2.956,2.956,0,0,1,29.66,29H32v6a3.009,3.009,0,0,0,3,3ZM43.76,18.91A4.92,4.92,0,0,0,42,22.71V36H39V26a1,1,0,0,0-2,0V36H35a1,1,0,0,1-1-1V22.71a4.92,4.92,0,0,0-1.76-3.8A8.991,8.991,0,0,1,33,4.52V13a1.014,1.014,0,0,0,.4.8l4,3a.99.99,0,0,0,1.2,0l4-3A1.014,1.014,0,0,0,43,13V4.52a8.977,8.977,0,0,1,3.26,3.9l-1.63.65a1,1,0,0,0,0,1.86l2.36.94c0,.05.01.09.01.13A8.954,8.954,0,0,1,43.76,18.91Zm9.87-7.84a1.015,1.015,0,0,0-.53.49L52,13.8l-1.1-2.24a1.015,1.015,0,0,0-.53-.49L47.69,10l.14-.05c0-.01,0-.01.01-.01s.01-.01.02-.01l2.51-1a.966.966,0,0,0,.56-.56L52,5.69l1.07,2.68a.966.966,0,0,0,.56.56L56.31,10Z"/></g></svg>
