<svg id="Capa_1" enable-background="new 0 0 511.047 511.047" height="512" viewBox="0 0 511.047 511.047" width="512" xmlns="http://www.w3.org/2000/svg"><g><path d="m384.603 137.81c-4.143 0-7.5 3.357-7.5 7.5v320.371c0 2.721-2.213 4.934-4.934 4.934h-234.453c-2.721 0-4.934-2.213-4.934-4.934v-138.573c0-4.143-3.357-7.5-7.5-7.5s-7.5 3.357-7.5 7.5v138.572c0 10.991 8.942 19.934 19.934 19.934h234.453c10.991 0 19.934-8.942 19.934-19.934v-320.37c0-4.143-3.358-7.5-7.5-7.5z"/><path d="m125.282 302.646c4.143 0 7.5-3.357 7.5-7.5v-192.39c0-2.721 2.213-4.934 4.934-4.934h162.896c4.143 0 7.5-3.357 7.5-7.5s-3.357-7.5-7.5-7.5h-162.896c-10.991 0-19.934 8.942-19.934 19.934v192.39c0 4.142 3.358 7.5 7.5 7.5z"/><path d="m353.323 256.309v-100.768c0-11.537-9.387-20.924-20.924-20.924h-154.914c-11.537 0-20.924 9.387-20.924 20.924v100.768c0 11.538 9.387 20.925 20.924 20.925h35.523c4.143 0 7.5-3.357 7.5-7.5s-3.357-7.5-7.5-7.5h-35.523c-3.267 0-5.924-2.658-5.924-5.925v-100.768c0-3.267 2.657-5.924 5.924-5.924h154.914c3.267 0 5.924 2.657 5.924 5.924v100.768c0 3.267-2.657 5.925-5.924 5.925h-87.428c-4.143 0-7.5 3.357-7.5 7.5s3.357 7.5 7.5 7.5h87.428c11.538-.001 20.924-9.387 20.924-20.925z"/><path d="m320.023 426.497h-26.835c-4.143 0-7.5 3.357-7.5 7.5s3.357 7.5 7.5 7.5h26.835c9.958 0 18.06-8.101 18.06-18.059v-26.298c0-9.958-8.102-18.06-18.06-18.06h-130.162c-9.958 0-18.06 8.102-18.06 18.06v26.298c0 9.958 8.102 18.059 18.06 18.059h71.365c4.143 0 7.5-3.357 7.5-7.5s-3.357-7.5-7.5-7.5h-71.365c-1.688 0-3.06-1.372-3.06-3.059v-26.298c0-1.688 1.372-3.06 3.06-3.06h130.162c1.688 0 3.06 1.372 3.06 3.06v26.298c0 1.687-1.372 3.059-3.06 3.059z"/><path d="m182.464 318.627h147.119c4.143 0 7.5-3.357 7.5-7.5s-3.357-7.5-7.5-7.5h-147.119c-4.143 0-7.5 3.357-7.5 7.5s3.357 7.5 7.5 7.5z"/><path d="m182.464 356.354h147.119c4.143 0 7.5-3.357 7.5-7.5s-3.357-7.5-7.5-7.5h-147.119c-4.143 0-7.5 3.357-7.5 7.5s3.357 7.5 7.5 7.5z"/><path d="m95.282 123.586h-75.56c-10.874 0-19.722 8.848-19.722 19.724v282.24c0 10.876 8.848 19.724 19.723 19.724h75.56c4.143 0 7.5-3.357 7.5-7.5s-3.357-7.5-7.5-7.5h-75.56c-2.604 0-4.723-2.119-4.723-4.724v-282.24c0-2.604 2.118-4.724 4.723-4.724h75.56c4.143 0 7.5-3.357 7.5-7.5s-3.358-7.5-7.501-7.5z"/><path d="m491.323 123.586h-76.721c-4.143 0-7.5 3.357-7.5 7.5s3.357 7.5 7.5 7.5h76.721c2.604 0 4.724 2.119 4.724 4.724v282.24c0 2.604-2.119 4.724-4.724 4.724h-76.721c-4.143 0-7.5 3.357-7.5 7.5s3.357 7.5 7.5 7.5h76.721c10.876 0 19.724-8.848 19.724-19.724v-282.24c0-10.876-8.848-19.724-19.724-19.724z"/><path d="m95.282 179.539c4.143 0 7.5-3.357 7.5-7.5s-3.357-7.5-7.5-7.5h-49.254c-7.596 0-13.775 6.18-13.775 13.776v70.007c0 7.597 6.18 13.776 13.775 13.776h49.254c4.143 0 7.5-3.357 7.5-7.5s-3.357-7.5-7.5-7.5h-48.029v-67.56h48.029z"/><path d="m477.632 178.315c0-7.597-6.18-13.776-13.775-13.776h-49.254c-4.143 0-7.5 3.357-7.5 7.5s3.357 7.5 7.5 7.5h48.029v67.56h-48.029c-4.143 0-7.5 3.357-7.5 7.5s3.357 7.5 7.5 7.5h49.254c7.596 0 13.775-6.18 13.775-13.776z"/><path d="m414.603 375.95c-4.143 0-7.5 3.357-7.5 7.5s3.357 7.5 7.5 7.5h48.408c8.062 0 14.621-6.559 14.621-14.621v-32.533c0-8.062-6.559-14.621-14.621-14.621h-48.408c-4.143 0-7.5 3.357-7.5 7.5s3.357 7.5 7.5 7.5h48.029v31.775z"/><path d="m95.282 344.175c4.143 0 7.5-3.357 7.5-7.5s-3.357-7.5-7.5-7.5h-48.408c-8.062 0-14.621 6.559-14.621 14.621v32.533c0 8.062 6.559 14.621 14.621 14.621h48.408c4.143 0 7.5-3.357 7.5-7.5s-3.357-7.5-7.5-7.5h-48.029v-31.775z"/><path d="m95.282 285.346h-34.964c-4.143 0-7.5 3.357-7.5 7.5s3.357 7.5 7.5 7.5h34.964c4.143 0 7.5-3.357 7.5-7.5s-3.357-7.5-7.5-7.5z"/><path d="m414.603 300.346h37.783c4.143 0 7.5-3.357 7.5-7.5s-3.357-7.5-7.5-7.5h-37.783c-4.143 0-7.5 3.357-7.5 7.5s3.357 7.5 7.5 7.5z"/><path d="m370.768 25.433c-27.22 0-49.364 22.145-49.364 49.363s22.145 49.363 49.364 49.363 49.363-22.145 49.363-49.363-22.145-49.363-49.363-49.363zm0 83.726c-18.948 0-34.364-15.415-34.364-34.363s15.416-34.363 34.364-34.363 34.363 15.415 34.363 34.363-15.415 34.363-34.363 34.363z"/></g></svg>