<svg height="416pt" viewBox="0 -8 416 416" width="416pt" xmlns="http://www.w3.org/2000/svg"><path d="m152 192h16v16h-16zm0 0"/><path d="m248 192h16v16h-16zm0 0"/><path d="m200 238.839844v9.160156h16v-9.160156c8.875-2.761719 15.179688-10.640625 15.921875-19.90625s-4.222656-18.050782-12.546875-22.191406l-15.589844-7.796876c-2.835937-1.417968-4.324218-4.59375-3.597656-7.679687.726562-3.082031 3.476562-5.261719 6.644531-5.265625h2.335938c3.769531.003906 6.828125 3.0625 6.832031 6.832031v1.167969h16v-1.167969c-.035156-9.941406-6.511719-18.710937-16-21.671875v-9.160156h-16v9.160156c-8.875 2.761719-15.179688 10.640625-15.921875 19.90625s4.222656 18.050782 12.546875 22.191406l15.589844 7.796876c2.835937 1.417968 4.324218 4.59375 3.597656 7.679687-.726562 3.082031-3.476562 5.261719-6.644531 5.265625h-2.335938c-3.769531-.003906-6.828125-3.0625-6.832031-6.832031v-1.167969h-16v1.167969c.035156 9.941406 6.511719 18.710937 16 21.671875zm0 0"/><path d="m208 296c53.019531 0 96-42.980469 96-96s-42.980469-96-96-96-96 42.980469-96 96c.058594 52.996094 43.003906 95.941406 96 96zm0-176c44.183594 0 80 35.816406 80 80s-35.816406 80-80 80-80-35.816406-80-80c.046875-44.164062 35.835938-79.953125 80-80zm0 0"/><path d="m0 96h16v16h-16zm0 0"/><path d="m56 0h16v16h-16zm0 0"/><path d="m32 32h88v16h-88zm0 0"/><path d="m16 64h88v16h-88zm0 0"/><path d="m26.398438 344 33.328124-40h73.921876c44.390624 32 104.28125 32 148.671874 0h101.679688v-16h-83.289062c47.050781-49.234375 47.050781-126.765625 0-176h59.289062c2.371094 0 4.625-1.050781 6.144531-2.871094l40-48c2.480469-2.96875 2.480469-7.289062 0-10.257812l-40-48c-1.519531-1.820313-3.773437-2.871094-6.144531-2.871094h-272v16h268.257812l33.34375 40-33.328124 40h-73.921876c-44.390624-32-104.28125-32-148.671874 0h-101.679688v16h83.289062c-47.050781 49.234375-47.050781 126.765625 0 176h-59.289062c-2.371094 0-4.625 1.050781-6.144531 2.871094l-40 48c-2.480469 2.96875-2.480469 7.289062 0 10.257812l40 48c1.519531 1.820313 3.773437 2.871094 6.144531 2.871094h272v-16h-268.257812zm181.601562-256c61.855469 0 112 50.144531 112 112s-50.144531 112-112 112-112-50.144531-112-112c.066406-61.828125 50.171875-111.933594 112-112zm0 0"/><path d="m400 288h16v16h-16zm0 0"/><path d="m344 384h16v16h-16zm0 0"/><path d="m296 352h88v16h-88zm0 0"/><path d="m312 320h88v16h-88zm0 0"/></svg>